<svg xmlns="http://www.w3.org/2000/svg" width="336" height="336" viewBox="0 0 336 336">
  <title>Take 5 Icon</title>
  <desc>Tutorials in 5 minutes or less.</desc>
  <g fill-rule="evenodd" clip-rule="evenodd">
    <path d="M165.354 4.97c-64.303 0-121.698 38.759-140.811 78.42C5.521 118.603-1.922 167.779 9.167 213.321c11.018 45.25 31.503 74.994 76.51 101.163 64.521 31.956 146.185 14.102 193.994-20.737 32.742-23.863 52.22-73.628 53.518-121.342.373-43.794-14.891-82.685-38.6-110.084C271.43 32.767 233.411 5.082 165.354 4.97"/>
    <path fill="#DCDBDB" d="M40.05 91.787c-20.426 36.284-19.25 53.795-17.995 98.017 10.671 75.653 57.127 102.4 77.344 110.606 54.049 21.946 118.041 20.394 165.72-19.079 28.899-23.923 50.25-49.888 53.733-108.627.007-38.14-11.9-68.742-29.331-93.148-33.003-46.207-87.804-68.123-143.975-60.027-42.782 6.167-85.07 35.975-105.496 72.258z"/>
    <path d="M162.536 17.24v14.223h5.514V17.24h-5.514M321.257 168.943h-16.931v5.508h16.931v-5.508M168.05 320.249v-16.384h-5.514v16.384h5.514M18.203 174.452h19.248v-5.508H18.203v5.508"/>
    <path fill="#C9C9C9" d="M87.805 75.135c-3.814 5.608-6.452 4.826-7.873 11.37-1.827 8.407-7.111 15.749-9.961 23.892-6.195 17.693-.052 37.751 11.894 52.532 11.946 14.781 28.986 25.044 46.433 33.523 9.497 4.615 19.371 8.841 29.901 10.452 6.423.982 12.938.971 19.456.959 2.964-.005 5.928-.011 8.883.077 11.274.335 22.501 2.045 33.319 5.071 11.026 3.086 22.032 7.588 33.494 6.849 12.915-.832 25.08-8.293 37.929-6.812 3.549.411 3.737 1.618 6.058 4.206 2.957 3.295-4.82 18.021-7.258 21.989-15.118 24.601-36.892 48.834-68.305 58.032-8.566 2.509-17.438 5.562-26.309 6.77-18.341 2.496-36.965 2.504-55.386.581-18.416-1.921-36.741-7.606-51.288-18.531-9.556-7.173-17.215-16.372-24.122-25.91-15.964-22.042-28.602-47.149-30.418-73.865-.537-7.895-.123-15.817.333-23.718 1.067-18.604 2.456-37.624 10.194-54.739 4.866-10.767 12.082-20.393 19.243-29.929 3.996-5.319 8.033-7.401 13.11-11.799 7.352-6.363 16.54-13.694 25.636-17.501 14.143-5.916 29.108-11.585 44.514-10.502-18.389 4.701-29.529 14.301-45.969 23.444-3.856 2.149-11.081 9.987-13.508 13.559"/>
    <path fill="#FFF" d="M281.845 94.368c19.922 45.823 27.333 97.646-12.904 144.632 34.228-41.658 17.667-129.432-8.698-149.43C183.516 31.373 157.538 51.752 110 60.495l19.137-9.233c48.992-22.598 135.82 4.256 152.708 43.106z"/>
    <path fill="#B3B6B3" fill-opacity=".5" d="M85.299 167.419c1.792 1.943 3.67 3.803 5.628 5.589 8.289-.059 16.578-.088 24.867-.088 14.841 0 29.68.094 44.519.283.722-.654 1.445-1.305 2.165-1.959-.735-1.261-1.503-2.486-2.307-3.678-14.791-.187-29.583-.281-44.378-.281-10.165 0-20.329.044-30.494.134z"/>
    <path fill="#A4A8A5" fill-opacity=".5" d="M85.299 167.419c-7.548.066-15.096.156-22.645.27l.086 5.635c9.395-.143 18.789-.248 28.186-.316-1.957-1.786-3.835-3.646-5.627-5.589"/>
    <path fill="#B3B6B3" fill-opacity=".5" d="M167.016 171.802c.821.494 1.637 1.002 2.447 1.518 32.794-.058 65.591.317 98.362 1.126l.154-5.633c-32.149-.794-64.322-1.169-96.494-1.129-1.487 1.377-2.976 2.747-4.469 4.118zM161.809 171.131c-6.131 5.657-12.309 11.266-18.506 16.852-3.849 3.469-7.715 6.939-11.57 10.432 1.963.939 3.944 1.85 5.94 2.716 3.182-2.874 6.373-5.74 9.56-8.613 6.187-5.578 12.363-11.185 18.5-16.844v-3.588c-.155-.304-.311-.607-.47-.909-1.149-.017-2.305-.032-3.454-.046"/>
    <path fill="#A4A8A5" fill-opacity=".5" d="M131.733 198.602c-14.676 13.031-29.186 26.431-41.799 41.712l4.352 3.584c12.817-15.536 27.815-29.243 43.091-42.768-1.896-.805-3.778-1.654-5.644-2.528M134.828 141.111c5.949 5.387 11.643 10.398 16.679 15.749 5.04 5.354 9.419 11.035 12.834 17.823l5.04-2.532c-3.72-7.394-8.48-13.54-13.764-19.151-5.288-5.615-11.094-10.71-17.001-16.063-12.783-11.581-24.768-24.002-35.85-37.153l-4.314 3.628c11.245 13.344 23.406 25.949 36.376 37.699z"/>
    <path fill="#929893" d="M170.217 171.819c-.224.204-.448.409-.673.613.029.152.057.303.086.455l-.739.141c-.107.095-.211.191-.318.288 1.331.02 2.656.04 3.986.062-.774-.529-1.555-1.051-2.342-1.559"/>
    <path d="M169.544 172.432c-.217.198-.436.398-.652.597l.739-.141c-.03-.153-.057-.304-.087-.456"/>
    <path fill="#929893" d="M167.467 173.3l-.607.116v.002h1.604c.037-.035.072-.066.108-.101-.366-.006-.737-.011-1.105-.017"/>
    <path d="M167.104 173.295l-.243.121.607-.116c-.124-.001-.241-.003-.364-.005"/>
    <path fill="#78807A" d="M168.892 173.029l-1.424.272c.368.006.739.011 1.106.017.106-.098.211-.194.318-.289m.435-1.778c.072.393.143.788.217 1.181.224-.204.448-.409.673-.613-.296-.191-.592-.381-.89-.568"/>
    <path d="M168.719 170.867c.224.424.445.852.662 1.283l-2.277 1.144c.123.002.241.004.364.006l1.424-.272c.217-.198.436-.398.652-.597-.074-.393-.145-.788-.217-1.181-.202-.127-.404-.254-.608-.383"/>
    <path d="M167.234 169.962l-2.071 3.456 1.698-.002.243-.121 2.277-1.144c-.217-.431-.437-.859-.662-1.283-.493-.305-.989-.608-1.485-.906"/>
    <path fill="#B3B6B3" fill-opacity=".5" d="M165.4 176c-.271.242-1.052.94-1.4 1.25 0 10.033.042 20.732.042 30.765 1.875.13 3.755.204 5.641.246v-29.549c-1.246-.849-2.507-1.665-3.786-2.451L165.4 176z"/>
    <path fill="#A4A8A5" fill-opacity=".5" d="M164.042 208.011v59.243h5.641V208.26c-1.887-.042-3.767-.117-5.641-.249"/>
    <path fill="#929893" d="M169.682 173.418h-1.217c-.855.777-1.713 1.557-2.569 2.334 1.279.799 2.54 1.627 3.786 2.49v-4.824"/>
    <path fill="#78807A" d="M168.465 173.418h-1.604l-2.43 1.219-.096.16c.522.312 1.044.632 1.56.955.857-.777 1.716-1.557 2.57-2.334"/>
    <path d="M166.861 173.418h-1.698l-.732 1.219 2.43-1.219"/>
    <path fill="#B3B6B3" fill-opacity=".5" d="M164 173c7.115 4.921 18.374 14.099 24.191 20.87 3.665 4.265 7.074 8.922 10.607 13.578 2.72.349 5.429.779 8.122 1.285-.061-.073-.119-.149-.178-.224-4.709-5.938-9.156-12.348-14.271-18.308-5.853-6.814-16.489-15.833-24.099-21.243-.469-.334-.927-.654-1.371-.958-1.332-.022-3.001 3.392-3.001 5z"/>
    <path fill="#A4A8A5" fill-opacity=".5" d="M198.798 207.449c1.156 1.524 2.325 3.048 3.521 4.557 10.327 13.044 22.268 24.48 35.381 33.89l3.29-4.578c-12.597-9.038-24.102-20.034-34.071-32.584-2.692-.507-5.401-.937-8.121-1.285"/>
    <g>
      <path d="M203.97648587 120.25433068l5.30011608-18.51601282-18.55983271-5.3274074-5.29026862 18.51584736 18.54998525 5.32757286"/>
      <path d="M174.55688855 180.35162113l38.73546322-38.68947416 38.73454272-38.6898649-16.63628421-7.06168368-57.20172747 58.27400505 2.15185521-81.64128946-16.62799967-7.0581671-2.09682975 109.33641791z"/>
    </g>
  </g>
</svg>
