<svg xmlns="http://www.w3.org/2000/svg" width="108" height="108" viewBox="0 0 108 108"><title>sad-intercom</title><g fill="none" fill-rule="evenodd"><circle cx="54" cy="54" r="54" fill="#222"/><path fill="#F8971D" d="M79.2 82.8l-13.137-5.015c-1.854-.708-4.97-1.282-6.954-1.282H32.395c-1.986 0-3.596-1.62-3.596-3.607V28.808c0-1.993 1.62-3.608 3.604-3.608h43.192c1.99 0 3.604 1.616 3.604 3.603V82.8z"/><path fill="#222" d="M42.854 65.512c3.777-1.97 7.547-3.01 11.17-3.01 3.625 0 7.395 1.04 11.173 3.01 1.226.64 2.39 1.346 3.456 2.09.41.288.582.417.556.39.746.587 1.722.502 2.283-.095l.08-.084c.513-.547.597-1.51.07-1.932-.175-.13-.412-.307-.654-.484-.177-.128-.305-.22-.41-.294-1.182-.825-2.464-1.604-3.818-2.31-4.246-2.215-8.533-3.392-12.737-3.392-4.204 0-8.49 1.177-12.737 3.392-1.353.706-2.635 1.485-3.817 2.31-.38.267-.735.527-1.052.772-.07.054-.07.054-.08.06.992 1.162.992 1.162 1.022 1.14l.04-.032-.49-.584-.5-.577c-.63.5-.476 1.354.068 1.933l.08.084c.567.604 1.536.67 2.202.165.056-.045.238-.18.638-.46 1.067-.744 2.23-1.45 3.456-2.09zM37.7 66.964c.063-.06.03-.062.02-.072l-.08-.084c-.026-.03-.012.053-.23.227l-.992-1.16c-.01.006-.01.006-.04.03l-.04.03c.992 1.16.992 1.16 1.062 1.107.297-.23.63-.473.992-.727 1.127-.786 2.35-1.53 3.644-2.205 4.03-2.102 8.064-3.21 11.99-3.21 3.925 0 7.96 1.108 11.988 3.21 1.293.675 2.518 1.42 3.644 2.205.096.068.216.153.353.253.016.01.016.01.03.022.236.172.467.344.618.458-.27-.215-.27-.217-.248-.24l-.08.084c-.038.01-.232-.137-.756-.503-1.122-.784-2.343-1.525-3.63-2.197C61.95 62.11 57.93 61 54.024 61c-3.902 0-7.923 1.11-11.918 3.193-1.287.672-2.507 1.413-3.63 2.196-.533.373-.704.498-.777.574z"/></g></svg>