<svg xmlns="http://www.w3.org/2000/svg" width="210" height="25" viewBox="0 0 210 25"><title>Gymnasium Logo (Dark Gray/Orange)</title><path fill="#FFFFFF" d="M12.4 24.5c-6.7 0-12-5.3-12-12S5.8.4 12.4.4c2.9 0 5.8 1.1 8.2 3.1.1.1.2.2.2.4 0 .1 0 .2-.1.3l-2.1 2.2c-.1.1-.2.1-.3.1-.1 0-.2-.1-.3-.2-1.5-1.3-3.3-2-5.3-2-4.3 0-7.8 3.6-7.8 8.1 0 4.4 3.5 8 7.8 8 2 0 3.5-.6 4.1-.9h.1v-3.2H14c-.3 0-.5-.2-.5-.4v-2.7c0-.3.2-.5.5-.5h6.5c.2 0 .4.2.4.5V22c0 .2-.1.3-.2.4 0 0-3.5 2.1-8.3 2.1m20.3-.6c-.3 0-.5-.2-.5-.5V12.5L24.4 1.1c-.1-.2-.1-.3 0-.5.1-.1.2-.2.4-.2h3.5c.2 0 .3.1.4.2l5.6 8 5.6-8c.1-.2.2-.2.4-.2h3.5c.2 0 .3.1.4.2.1.1.1.3 0 .5l-7.9 11.4v10.9c0 .2-.2.5-.5.5h-3.1m26.5.7c-.2 0-.3-.1-.4-.3l-6.1-13.5h-.4l-2 13c0 .1-.2.4-.4.4h-3.1c-.2 0-.3 0-.4-.1-.1-.1-.1-.2-.1-.4l4-22.8c0-.1.1-.4.4-.4h.5c.2 0 .3.1.4.2l7.5 16.1h.3L66.9.6c.1-.2.2-.2.4-.2h.5c.4 0 .4.3.4.4l4 22.9c0 .2 0 .3-.1.4s-.2.1-.4.1h-3.1c-.2 0-.4-.2-.5-.4l-2-13h-.4l-6 13.5c0 .1-.2.3-.4.3h-.1m37.7 0L82.7 9h-.3v14.8c0 .2-.2.5-.5.5h-3.1c-.2 0-.5-.2-.5-.5V.9c0-.2.2-.4.5-.4h.8l14.1 15h.3V1.3c0-.2.2-.5.5-.5h3.1c.2 0 .5.2.5.5v22.9c0 .2-.2.4-.5.4h-.7m38.1 0c-4.4 0-6.9-2.2-7.4-2.6-.3-.3-.4-.4-.1-.8l1.2-2.1c.2-.3.4-.3.5-.3s.3 0 .4.1l.1.1c2 1.4 3.8 2.1 5.1 2.1 1.8 0 3.3-1.2 3.3-2.8 0-1.7-1.3-3-4.4-4.2-2.7-1.1-6.3-3-6.3-7.2 0-3.1 2.3-6.3 7.5-6.3 3.5 0 6.2 1.9 6.7 2.2.1.1.2.2.2.4s0 .4-.1.5l-1.3 1.9c-.2.3-.4.4-.7.4-.1 0-.2 0-.3-.1-1.1-.7-3.2-1.9-4.8-1.9-2 0-3.2 1.3-3.2 2.6 0 1.6 1.2 2.8 4.1 4 3.5 1.4 7 3.4 7 7.5.1 3.1-2.5 6.5-7.5 6.5m14.8-.7c-.2 0-.5-.2-.5-.5V.9c0-.2.2-.5.5-.5h3.2c.2 0 .5.2.5.5v22.5c0 .2-.2.5-.5.5h-3.2m19.8.3c-5.2 0-9.3-4-9.3-9.2V.9c0-.2.2-.5.5-.5h3.2c.3 0 .5.2.5.5v13.9c0 3.1 2.1 5.3 5.1 5.3s5.1-2.2 5.1-5.3V.9c0-.2.2-.5.5-.5h3.2c.2 0 .5.2.5.5V15c0 5.2-4 9.2-9.3 9.2m26.6.4c-.2 0-.3-.1-.4-.3l-6.1-13.5h-.4l-2 13c0 .1-.2.4-.4.4h-3.1c-.2 0-.3 0-.4-.1-.1-.1-.1-.2-.1-.4l4-22.8c0-.1.1-.4.4-.4h.5c.2 0 .3.1.4.2l7.5 16.1h.3L203.9.6c.1-.2.2-.2.4-.2h.5c.4 0 .4.3.4.4l4 22.9c0 .2 0 .3-.1.4s-.2.1-.4.1h-3.1c-.2 0-.4-.2-.5-.4l-2-13h-.4l-6 13.5c0 .1-.2.3-.5.3"/><path fill="#F8971D" d="M111.4 16l.6 4.5 4.5-.6-.6-4.5-4.5.6"/><path fill="#F8971D" d="M115.3.4H112l-9.6 23.8h4.2l7-17.9 7 17.9h4.2L115.3.4"/></svg>
