<svg xmlns="http://www.w3.org/2000/svg" width="574" height="488" viewBox="0 0 574 488" version="1.1"><title>gym-106</title><desc>Created with Sketch.</desc><g stroke="none" stroke-width="1" fill="none" fill-rule="evenodd"><rect fill="#2C9959" x="0" y="0" width="574" height="488"/><g transform="translate(84.000000, 343.000000)"><path d="M166.4 0.2C119.2 0.2 71.3 13.8 25.6 27.2 15.7 30.1 4.4 34.1 1.3 42.2 -3.5 54.7 14.4 63.7 29.4 67.4 86.1 81.6 145.9 88.7 206.2 88.7 250 88.7 294.1 84.9 337.5 77.3 356.1 74.1 375.5 69.8 390 59.3 404.4 48.8 412 30.3 401.9 17.8 372.8 6.5 340.2 0.6 307.2 0.6 295.7 0.6 284 1.3 272.5 2.8 260.1 4.4 247.6 6.8 235.2 6.8 234.9 6.8 234.6 6.8 234.4 6.8 221 6.7 208.1 3.7 194.9 2 185.4 0.7 175.9 0.2 166.4 0.2Z" fill="#1A6839"/><path d="M338.8 24.5C338.8 24.6 338.8 24.7 338.8 24.8 340 36.8 288.1 41.9 281.1 42.9 228 50.2 141.9 49.6 116.6 49.7L116.5 49.7C108.6 49.7 88.5 47.9 73.4 45.3 73.7 45.5 74.1 45.7 74.5 46 82.1 50.4 91 51.8 99.7 52.9 167.6 62.1 236 66.7 304.5 66.7 311.2 66.7 318 66.7 324.7 66.6 338.4 66.4 352.4 66 365.3 61.3 364.1 50.8 379.3 42.5 356.3 31.2 350.5 28.8 344.7 26.5 338.8 24.5M161.3 5.6C127.4 5.6 93.5 11.9 62.1 24.4 61.7 27.7 62.3 31 63.6 34 65.2 33.6 67 33.2 69.1 32.8 90.3 28.9 249.4 23 259.6 22.5 266 22.2 277 21 284.2 21 284.9 21 285.6 21 286.3 21 287.5 21.1 289.2 21.1 291.2 21.1 293.4 21.1 296 21.1 298.8 21 301.6 21 304.6 21 307.7 21 315.8 21 324.3 21.1 330.4 21.8 320.1 18.7 309.7 16.3 299.1 14.6 291.3 13.3 283.4 12.3 275.4 12.3 271.2 12.3 266.9 12.6 262.7 13.2 256.2 14.2 249.7 15.9 243.1 16 242.9 16 242.8 16 242.7 16 235.7 16 228.9 14.2 222.2 12.6 202.2 7.9 181.7 5.6 161.3 5.6" fill="#185B32"/><path d="M63.6 33.6C46.1 38 56.8 42.2 73.4 45.3 69.2 42.4 65.6 38.3 63.6 33.6M330.4 21C333.2 21.8 336 22.8 338.8 23.8 338.3 22.4 335.1 21.5 330.4 21" fill="#17522E"/><path d="M286.6 20C279.3 20 268.1 21.2 261.6 21.6 251.3 22.1 90.1 28.2 68.6 32.4 66.5 32.8 64.6 33.2 63 33.6 65 38.3 68.6 42.5 72.9 45.4 88.3 48.2 108.6 50 116.7 50L116.8 50C142.4 49.9 229.6 50.5 283.5 42.9 290.6 41.9 343.2 36.5 342 23.9 342 23.9 342 23.8 341.9 23.7 339.1 22.7 336.3 21.7 333.4 20.9 327.2 20.1 318.6 20 310.5 20 307.3 20 304.2 20 301.4 20 298.5 20.1 295.9 20.1 293.7 20.1 291.7 20.1 290 20.1 288.7 20 288.1 20 287.3 20 286.6 20" fill="#164C2A"/></g><g transform="translate(126.000000, 61.000000)"><path d="M22.7 83.7C15.1 99.6 5.8 123.2 3.3 140.5 1.9 150-6.3 182.4 12.2 239.2 23.5 261.6 38.4 277.6 47.4 287 65.7 305.9 82.9 311 107.9 317.2 125.8 321.6 143 323.9 161.6 323.9 180.9 323.9 200.2 319.7 218.3 313.7 230.3 309.8 251.6 299.8 264.1 288.6 275.6 278.2 289.1 266.8 297.7 252.2 305.8 238.1 312.3 224.7 316.5 209.4 324.9 179.4 322.1 150.9 313.1 122.4 307.1 103.6 298.4 84.8 291.1 71.3 284.1 58.5 252.5 27.1 239.5 20.7 195.3-1.1 148.7-6.6 102.3 11.5 62.9 26.8 41.6 44.6 22.7 83.7" fill="#0E2214"/><path d="M97.1 33.6C91 36.7 83.7 40.3 78.7 45.1 74.7 48.8 63 58.9 58.1 63.9 34 79.6 27.2 117.8 23.6 128.5 21.8 133.7 18.1 160.8 18.1 166.2 18.1 182.6 17.7 190.4 20.7 206.4 22.4 215.4 25.1 220.1 31.4 232.6 37.8 245.6 40.5 249.5 48.1 257.4 58.3 269.8 57.9 268.6 68.4 273.6 80.3 279.2 90.2 279.9 100.9 287 109.6 292.8 117.4 302.2 129.1 304.2 139.9 306.2 155 305.6 166.1 305.6 188.5 305.5 203.9 305.7 228.5 292.5 238.5 287 257.3 273.8 265.4 265.3 288.7 240.6 296 215.5 299.6 203.4 305.7 183 304.6 145.9 301.2 136.4 299.1 125.7 295.5 112.5 286.6 98.5 282.9 92.6 277.9 84.8 270.6 75.9 265.6 69.7 256.2 58 244.2 46.8 230.7 34.3 221.5 30.9 211.4 26.8 197 21 171.2 19 162.1 18.6 152.6 18.1 138.3 20.7 129.1 23 113.4 26.8 105.7 29.3 97.1 33.6" fill="#DCDBDB"/><path d="M124.8 211C138.5 217.7 158.8 248.3 190.2 235 201.3 230.4 244.7 194 256.7 193.2 270.2 192.3 282.6 143.7 280.7 112.9 278.2 72.7 317.3 159.6 294.1 216.6 284.6 239.6 277.5 247.2 274.9 251.4 259.1 277.2 242.2 288.9 215.1 300.5 206.5 304.2 196.8 306.4 187.5 307.7 168.3 310.3 148.8 310.3 129.6 308.3 110.3 306.3 88.1 294.9 72.9 283.5 62.9 275.9 56.1 266.9 48.1 257.4 26.6 231.8 20.7 212.1 18.8 184.1 18.3 175.8 18.7 167.5 19.2 159.2 20.3 139.7 23 134.9 27.5 115.8 31.4 99.4 42.5 80.4 50 70.3 54.2 64.8 66.1 55.9 71.4 51.3 79.1 44.6 87.6 37.6 97.1 33.6 111.9 27.4 121.2 34.8 137.3 35.9 162.1 48.4 20.4 168 124.8 211" fill="#C9C9C9"/><path d="M172.4 259.9C173.7 212.7 173.1 175.1 170.9 132.5 161.7 132.6 150.2 130.7 140.7 131.2 138.6 172.7 139.3 218.3 141.7 259.9 155.7 266.3 159.7 256.6 172.4 259.9" fill="#C9C9C9"/><path d="M139.6 81.2C144 80.1 152.3 80.6 156.9 80.4 162.8 80.1 167.4 78.7 173.1 80.3 173.3 85.2 173.6 90.1 173.1 94.9 172.8 98 175.1 107.3 172.3 109.2 169.7 111.1 160.8 109.9 157.5 109.8 151.4 109.4 144.4 110.4 138.4 109.7 139.1 105.9 138.7 102.2 139.2 98.3 139.8 92.9 139.6 81.2 139.6 81.2" fill="#C9C9C9"/><path d="M178.9 260.1C180.1 212.8 179.6 175.2 177.4 132.6 168.1 132.8 156.7 130.8 147.1 131.3 145 172.8 145.8 218.4 148.2 260.1 162.1 266.4 166.1 256.8 178.9 260.1" fill="#0E2214"/><path d="M146.1 81.4C150.5 80.3 158.8 80.7 163.3 80.5 169.2 80.2 173.9 78.8 179.5 80.4 179.8 85.3 180 90.2 179.5 95 179.2 98.1 181.5 107.4 178.8 109.3 176.1 111.3 167.2 110 164 109.9 157.8 109.6 150.9 110.5 144.9 109.8 145.5 106 145.2 102.3 145.6 98.4 146.2 93 146.1 81.4 146.1 81.4" fill="#0E2214"/><path d="M211 287.8C102.6 325.3 62.9 226.4 75 241.2 122.2 298.9 181.3 287.2 231 278L211 287.8" fill="#FFFFFF"/></g></g></svg>