<svg xmlns="http://www.w3.org/2000/svg" width="574" height="488" viewBox="0 0 574 488" version="1"><title>gym-005</title><desc>Created with Sketch.</desc><g stroke="none" stroke-width="1" fill="none" fill-rule="evenodd"><rect fill="#5CA5A0" x="0" y="0" width="574" height="488"/><g transform="translate(139.000000, 348.000000)"><path d="M291 43C282 59 259 68 252 69 214 72 177 76 139 79 123 81 107 82 90 83 81 84 71 85 61 85 55 85 48 85 41 84 26 81 11 74 2 63 -4 48 4 30 20 22 27 19 34 18 42 16 61 13 74 5 104 5 133 5 163 1 163 1 175 2 197 3 215 1 252-3 285 7 285 7 297 13 297 32 291 43Z" fill="#315A5B"/><path d="M230 16C232 16 233 16 235 16 238 16 242 15 244 17 250 20 266 26 266 26 270 54 229 53 212 52 208 51 206 51 205 51 67 66 69 45 69 45 69 45 79 20 93 24 104 16 225 16 230 16" fill="#274444"/><path d="M242 7C239 7 236 7 233 7 224 8 217 11 208 13 215 14 221 14 227 14 228 14 229 14 230 14 233 14 236 14 239 14 243 14 246 14 249 14 255 14 261 14 267 16 270 16 272 17 275 18 275 17 275 16 274 15 265 10 253 7 242 7" fill="#2E5354"/><path d="M231 16C232 16 234 16 235 16 237 16 238 16 239 16 241 16 243 16 244 17 250 20 266 26 266 26 270 48 243 52 224 52 219 52 215 52 212 52 209 52 206 51 205 51 205 51 205 51 205 51 169 55 142 57 123 57 68 57 69 45 69 45 69 45 78 23 90 23 91 23 92 23 93 24 103 17 190 16 220 16 226 16 230 16 230 16 231 16 231 16 231 16M208 13C208 13 208 13 207 13 196 15 185 15 174 15L173 15C148 15 123 15 98 15L98 15C82 15 65 16 52 23 47 25 44 28 40 31 30 39 2 36 15 60 27 66 39 72 53 74 57 75 61 75 65 75 69 75 74 75 79 75 120 72 161 69 202 67 219 66 237 64 253 56 267 49 278 33 275 18 272 17 270 16 267 16 261 14 255 14 249 14 246 14 243 14 239 14 236 14 233 14 230 14 229 14 228 14 227 14 221 14 215 14 208 13" fill="#2C4F4F"/><path d="M239 16C238 16 237 16 235 16 234 16 232 16 231 16 231 16 231 16 230 16 230 16 226 16 220 16 190 16 103 17 93 24 92 23 91 23 90 23 78 23 69 45 69 45 69 45 68 57 123 57 142 57 169 55 205 51 205 51 205 51 205 51 206 51 209 52 212 52 215 52 219 52 224 52 243 52 270 48 266 26 266 26 250 20 244 17 243 16 241 16 239 16" fill="#274444"/></g><g transform="translate(111.000000, 61.000000)"><path d="M124 2C153 1 205 1 235 0 241 0 238 0 245 2 250 3 276 17 308 35 315 39 347 81 350 87 353 93 346 100 342 106 292 184 234 252 179 324 101 244 83 202 28 133 23 127 0 96 0 96 16 79 49 34 54 31 94 13 108 0 124 2" fill="#1F2935"/><path d="M19 98C31 115 55 146 68 163 104 212 138 259 178 304 243 227 272 184 337 91 316 62 306 48 288 38 269 28 246 20 237 16 176 18 176 18 130 19 121 19 91 38 77 39 77 39 59 62 56 66 45 77 30 86 19 98" fill="#B7B7B7"/><path d="M283 43C289 37 252 15 227 15 214 14 200 13 187 13 177 13 140 14 130 15 106 19 115 18 69 39 77 46 103 59 112 66 144 65 164 66 196 65 221 64 241 70 264 61 267 60 281 45 283 43" fill="#DCDBDB"/><path d="M227 148C244 148 261 148 277 143 276 118 267 104 254 82 252 80 246 68 244 66 240 63 235 63 230 62 193 61 156 60 120 61 107 90 98 114 85 142 134 143 178 147 227 148" fill="#FFFFFF"/><path d="M89 144C87 149 99 160 102 166 120 198 138 231 156 264 163 278 169 290 179 302 189 276 207 255 222 231 242 201 257 175 277 144 216 142 158 140 89 144" fill="#DCDBDB"/><path d="M65 42C55 52 25 90 20 97 41 116 62 127 84 143 96 119 106 94 116 68 101 59 87 50 72 41 71 40 70 39 69 39 67 39 66 41 65 42" fill="#C9C9C9"/><path d="M318 105C323 100 328 95 334 89 334 88 335 90 335 89 335 88 308 55 296 45 293 42 292 40 288 38 282 37 285 41 280 44 269 49 264 55 240 65 248 89 258 118 271 139 272 141 274 144 277 144 279 144 281 142 282 141 294 128 306 118 318 105" fill="#C9C9C9"/><path d="M140 24C125 23 109 25 96 32 95 33 94 34 93 36 100 36 106 41 113 42 116 43 120 42 124 42 152 38 226 32 229 31 229 27 207 20 201 22 182 26 160 27 140 24" fill="#FFFFFF"/><path d="M275 115C276 117 276 119 276 122 284 122 291 117 297 113 306 107 315 99 314 90 307 103 268 85 264 85 260 96 265 108 275 115" fill="#DCDBDB"/></g></g></svg>